<svg width="24" height="33" viewBox="0 0 24 33" fill="none" xmlns="http://www.w3.org/2000/svg">
<path d="M12.0237 33.0004C18.112 33.0004 23.0475 28.3708 23.0475 22.6598C23.0475 16.9489 18.112 12.3193 12.0237 12.3193C5.93549 12.3193 1 16.9489 1 22.6598C1 28.3708 5.93549 33.0004 12.0237 33.0004Z" fill="#FFA459"/>
<mask id="mask0_239_1817" style="mask-type:luminance" maskUnits="userSpaceOnUse" x="1" y="12" width="23" height="22">
<path d="M12.0237 33.0004C18.112 33.0004 23.0475 28.3708 23.0475 22.6598C23.0475 16.9489 18.112 12.3193 12.0237 12.3193C5.93549 12.3193 1 16.9489 1 22.6598C1 28.3708 5.93549 33.0004 12.0237 33.0004Z" fill="white"/>
</mask>
<g mask="url(#mask0_239_1817)">
<path d="M0.0839844 23.8828C5.57952 29.5636 12.9893 36.3868 24.4126 24.1299L24.9683 35.121C24.9683 35.121 6.07349 36.1708 5.57952 36.2941C5.08555 36.4177 0.0839844 23.8828 0.0839844 23.8828Z" fill="#FFF4BF"/>
</g>
<path d="M12.1799 32.0791C17.7051 32.0791 22.1841 27.8777 22.1841 22.695C22.1841 17.5124 17.7051 13.311 12.1799 13.311C6.65479 13.311 2.17578 17.5124 2.17578 22.695C2.17578 27.8777 6.65479 32.0791 12.1799 32.0791Z" fill="#512470"/>
<path d="M19.703 25.6854C19.2747 29.2824 16.1279 32.217 12.262 32.217C8.39611 32.217 4.95485 29.2129 4.65556 25.6027C3.99512 17.6366 11.6556 21.0278 12.317 21.0831C12.8251 21.1252 20.698 17.3276 19.703 25.6854Z" fill="#FFA459"/>
<mask id="mask1_239_1817" style="mask-type:luminance" maskUnits="userSpaceOnUse" x="4" y="20" width="16" height="13">
<path d="M19.703 25.6854C19.2747 29.2824 16.1279 32.217 12.262 32.217C8.39611 32.217 4.95485 29.2129 4.65556 25.6027C3.99512 17.6366 11.6556 21.0278 12.317 21.0831C12.8251 21.1252 20.698 17.3276 19.703 25.6854Z" fill="white"/>
</mask>
<g mask="url(#mask1_239_1817)">
<path d="M0.578125 25.2109C4.06695 27.9895 12.7734 35.6464 21.3871 26.0445L21.0167 33.5778C21.0167 33.5778 5.20927 36.4799 5.1476 36.1712C5.08593 35.8624 2.49253 31.6636 2.49253 31.6636L0.578125 25.2109Z" fill="#FFF4BF"/>
</g>
<path d="M15.8697 24.8545C16.406 24.8545 16.8409 24.4197 16.8409 23.8833C16.8409 23.3469 16.406 22.9121 15.8697 22.9121C15.3333 22.9121 14.8984 23.3469 14.8984 23.8833C14.8984 24.4197 15.3333 24.8545 15.8697 24.8545Z" fill="#660D3E"/>
<path d="M8.72837 24.8049C9.30538 24.8049 9.77314 24.3371 9.77314 23.7601C9.77314 23.1831 9.30538 22.7153 8.72837 22.7153C8.15135 22.7153 7.68359 23.1831 7.68359 23.7601C7.68359 24.3371 8.15135 24.8049 8.72837 24.8049Z" fill="#660D3E"/>
<path d="M19.4207 21.1013C18.9042 21.8324 17.7343 21.9231 17.1627 21.5194C16.5911 21.1158 16.5466 20.1955 17.0633 19.4644C17.5799 18.7332 18.462 18.4676 19.0336 18.8712C19.6051 19.2749 19.9373 20.3701 19.4207 21.1013Z" fill="#FFA459"/>
<path d="M12.0501 25.2082L11.5223 24.4317C11.3868 24.2323 11.5346 23.9637 11.7754 23.9714L12.321 23.9887L12.8714 24.006C13.1112 24.0137 13.242 24.2894 13.0961 24.4798L12.5281 25.2215C12.4058 25.3813 12.1632 25.3745 12.0501 25.2082Z" fill="#660D3E"/>
<path d="M12.2893 25.1479C12.2756 25.1893 12.2893 26.0436 12.2893 26.0436C12.2893 26.0436 12.8083 26.7004 13.3365 26.0573" stroke="#660D3E" stroke-width="0.368274" stroke-miterlimit="10" stroke-linecap="round" stroke-linejoin="round"/>
<path d="M8.05078 1.03076C9.03449 1.44492 10.484 3.15336 10.3806 5.48314" stroke="#FFA459" stroke-width="1.19689" stroke-miterlimit="10" stroke-linecap="round" stroke-linejoin="round"/>
<path d="M5.04194 21.0973C5.53913 21.8011 6.66512 21.8883 7.21512 21.4998C7.76512 21.1112 7.80804 20.2256 7.31085 19.5219C6.81366 18.8181 5.96478 18.5626 5.41458 18.9511C4.86438 19.3397 4.54474 20.3935 5.04194 21.0973Z" fill="#FFA459"/>
<path d="M17.5192 11.1866C17.8983 11.4968 19.0952 11.0068 18.4402 10.0417C17.7852 9.0765 13.959 7.14617 13.3387 7.18063C12.7182 7.21509 7.3754 8.38704 7.20309 8.4215C7.03077 8.45596 6.68594 7.80097 5.85883 8.1458C5.03152 8.49043 5.1349 9.3522 5.37635 10.0072C5.61759 10.6622 5.61759 11.6274 5.58313 12.0754C5.54866 12.5234 5.2385 13.9368 4.5835 14.3503C3.9285 14.7639 1.89478 15.3155 1.58461 16.8667C1.27445 18.418 3.17031 19.0383 4.27333 18.1076C5.37635 17.1769 5.72098 15.2121 6.65168 15.3155C7.58238 15.4189 12.2704 16.3841 13.0977 16.3841C13.925 16.3841 18.1647 14.8673 18.4404 14.4537C18.7161 14.0402 18.3453 12.9517 17.4835 13.2963C16.6218 13.6409 7.82362 14.04 7.72024 14.0055C7.61685 13.9711 7.61685 9.97254 7.61685 9.97254L17.5192 11.1866Z" fill="#E64E91"/>
<path d="M10.6869 4.78906C9.64716 5.16191 8.36498 6.38182 8.4865 7.62188C8.51331 7.89476 8.58183 8.15334 8.68502 8.39236C8.03788 8.53162 7.57979 8.63138 7.53122 8.64106C7.3589 8.67552 7.01407 8.02052 6.18696 8.36535C5.35964 8.70998 5.46303 9.57176 5.70447 10.2268C5.94571 10.8818 5.94571 11.8469 5.91125 12.2949C5.87679 12.743 5.56662 14.1563 4.91162 14.5699C4.25662 14.9835 2.2229 15.5351 1.91274 17.0863C1.60257 18.6375 3.49844 19.2579 4.60146 18.3272C5.70447 17.3965 6.0491 15.4317 6.97981 15.5351C7.91051 15.6385 12.5985 16.6036 13.4258 16.6036C14.2531 16.6036 18.4929 15.0868 18.7686 14.6733C18.9741 14.3651 18.8204 13.6823 18.3723 13.4969L18.3476 11.4757C18.7849 11.3727 19.2236 10.9317 18.7686 10.2612C18.1136 9.29606 14.2874 7.36573 13.667 7.40019C13.6527 7.40099 13.636 7.40241 13.6169 7.40442C13.6179 7.31091 13.614 7.21639 13.6048 7.12106C13.4663 5.70767 12.2085 4.67419 10.7951 4.81244C10.7542 4.81647 10.7135 4.82151 10.6732 4.82735" fill="#FFA459"/>
<path d="M10.6869 4.78906C9.64716 5.16191 8.36498 6.38182 8.4865 7.62188C8.51331 7.89476 8.58183 8.15334 8.68502 8.39236C8.03788 8.53162 7.57979 8.63138 7.53122 8.64106C7.3589 8.67552 7.01407 8.02052 6.18696 8.36535C5.35964 8.70998 5.46303 9.57176 5.70447 10.2268C5.94571 10.8818 5.94572 11.8469 5.91125 12.2949C5.87679 12.743 5.56662 14.1563 4.91162 14.5699C4.25662 14.9835 2.2229 15.5351 1.91274 17.0863C1.60257 18.6375 3.49844 19.2579 4.60146 18.3272C5.70447 17.3965 6.0491 15.4317 6.97981 15.5351C7.91051 15.6385 12.5985 16.6036 13.4258 16.6036C14.2531 16.6036 18.4929 15.0868 18.7686 14.6733C18.9741 14.3651 18.8204 13.6823 18.3723 13.4969L18.3476 11.4757C18.7849 11.3727 19.2236 10.9317 18.7686 10.2612C18.1136 9.29606 14.2874 7.36573 13.667 7.40019C13.6527 7.40099 13.636 7.40241 13.6169 7.40442C13.6179 7.31091 13.614 7.21639 13.6048 7.12106C13.4663 5.70767 12.2085 4.67419 10.7951 4.81244C10.7542 4.81647 10.7135 4.82151 10.6732 4.82735" stroke="#FFA459" stroke-width="1.76772" stroke-miterlimit="10"/>
<path d="M13.2465 14.7132C13.2424 14.8668 13.0921 14.9833 12.9238 14.9629L6.54391 14.1926C6.40828 14.1763 6.30469 14.0749 6.29703 13.9514L6.04148 9.87326C6.03321 9.74085 6.1368 9.62456 6.28151 9.60381C7.39299 9.44318 11.8194 8.45564 13.101 8.20654" fill="#FFBD87"/>
<path d="M13.1012 8.20605L17.8011 10.61C17.9305 10.6697 18.0125 10.7886 18.0141 10.919L18.0437 13.3352C18.0457 13.4924 17.9309 13.6317 17.7628 13.6764L12.9102 14.9628L13.1012 8.20605Z" fill="#FFECD9"/>
<path d="M8.00195 1C8.98566 1.41416 10.4351 3.1226 10.3317 5.45238" stroke="#6B002C" stroke-width="0.441929" stroke-miterlimit="10" stroke-linecap="round" stroke-linejoin="round"/>
<path d="M10.9638 9.84703C12.3838 9.84703 13.535 8.69586 13.535 7.27581C13.535 5.85576 12.3838 4.70459 10.9638 4.70459C9.54375 4.70459 8.39258 5.85576 8.39258 7.27581C8.39258 8.69586 9.54375 9.84703 10.9638 9.84703Z" fill="#D10031"/>
<path d="M17.7653 11.3106C18.1444 11.6208 19.3413 11.1309 18.6863 10.1657C18.0313 9.20052 14.2051 7.27019 13.5848 7.30465C12.9645 7.33912 7.6215 8.51106 7.44918 8.54552C7.27687 8.57999 6.93203 7.92499 6.10492 8.26982C5.27761 8.61445 5.381 9.47623 5.62244 10.1312C5.86368 10.7862 5.86368 11.7514 5.82922 12.1994C5.79476 12.6474 5.48459 14.0608 4.82959 14.4744C4.17459 14.8879 2.14087 15.4395 1.83071 16.9908C1.52054 18.542 3.41641 19.1623 4.51942 18.2316C5.62244 17.3009 5.96707 15.3361 6.89777 15.4395C7.82848 15.5429 12.5165 16.5081 13.3438 16.5081C14.1711 16.5081 18.4108 14.9913 18.6865 14.5778C18.9622 14.1642 18.5914 13.0757 17.7296 13.4203C16.8679 13.765 8.06972 14.164 7.96633 14.1295C7.86294 14.0951 7.86294 10.0966 7.86294 10.0966L17.7653 11.3106Z" fill="#93359C"/>
<path d="M13.4945 14.8362C13.4905 14.9898 13.3401 15.1063 13.1718 15.086L6.79196 14.3157C6.65632 14.2993 6.55273 14.198 6.54507 14.0744L6.28952 9.99631C6.28126 9.8639 6.38485 9.74761 6.52956 9.72685C7.64104 9.56623 12.0674 8.57869 13.349 8.32959" fill="#FF9494"/>
<mask id="mask2_239_1817" style="mask-type:luminance" maskUnits="userSpaceOnUse" x="6" y="8" width="8" height="8">
<path d="M13.4945 14.8362C13.4905 14.9898 13.3401 15.1063 13.1718 15.086L6.79196 14.3157C6.65632 14.2993 6.55273 14.198 6.54507 14.0744L6.28952 9.99631C6.28126 9.8639 6.38485 9.74761 6.52956 9.72685C7.64104 9.56623 12.0674 8.57869 13.349 8.32959" fill="white"/>
</mask>
<g mask="url(#mask2_239_1817)">
<path d="M13.34 10.7925L6.0332 11.7393L6.19786 12.8095L15.0482 12.8713L13.34 10.7925Z" fill="#FFB5E6"/>
</g>
<path d="M13.3473 8.32959L18.0472 10.7335C18.1766 10.7932 18.2586 10.9121 18.2602 11.0425L18.2898 13.4587C18.2918 13.6159 18.177 13.7552 18.0089 13.7999L13.1562 15.0864L13.3473 8.32959Z" fill="#FFECD9"/>
<mask id="mask3_239_1817" style="mask-type:luminance" maskUnits="userSpaceOnUse" x="13" y="8" width="6" height="8">
<path d="M13.3473 8.32959L18.0472 10.7335C18.1766 10.7932 18.2586 10.9121 18.2602 11.0425L18.2898 13.4587C18.2918 13.6159 18.177 13.7552 18.0089 13.7999L13.1562 15.0864L13.3473 8.32959Z" fill="white"/>
</mask>
<g mask="url(#mask3_239_1817)">
<path d="M12.9489 10.7515L18.4033 11.6981L18.3828 12.5216L12.7637 12.9948L12.9489 10.7515Z" fill="white"/>
</g>
<path d="M11.1875 26.0985C11.1875 26.0985 11.8489 26.8149 12.2899 26.0435" stroke="#660D3E" stroke-width="0.368274" stroke-miterlimit="10" stroke-linecap="round" stroke-linejoin="round"/>
<path d="M19.2232 26.8385C19.5799 25.8675 19.2166 24.8406 18.4117 24.5448C17.6067 24.249 16.6649 24.7963 16.3081 25.7673C15.9513 26.7383 16.3147 27.7652 17.1196 28.061C17.9246 28.3568 18.8664 27.8094 19.2232 26.8385Z" fill="#FF8269"/>
<path d="M7.32779 28.0586C8.16085 27.7525 8.54695 26.7172 8.19015 25.7462C7.83336 24.7752 6.86879 24.2363 6.03573 24.5424C5.20267 24.8485 4.81658 25.8838 5.17337 26.8548C5.53017 27.8257 6.49473 28.3647 7.32779 28.0586Z" fill="#FF8269"/>
</svg>
